<mxfile host="app.diagrams.net" agent="Mozilla/5.0 (Windows NT 10.0; Win64; x64) AppleWebKit/537.36 (KHTML, like Gecko) Chrome/134.0.0.0 Safari/537.36 Edg/134.0.0.0" version="26.1.1">
  <diagram name="Page-1" id="kr-bdFcn_5-G91TVo8ZC">
    <mxGraphModel dx="430" dy="238" grid="1" gridSize="10" guides="1" tooltips="1" connect="1" arrows="1" fold="1" page="1" pageScale="1" pageWidth="827" pageHeight="1169" math="0" shadow="0">
      <root>
        <mxCell id="0" />
        <mxCell id="1" parent="0" />
        <mxCell id="OWXHwOEo0ONOkHrs3OB0-1" value="" style="rounded=0;whiteSpace=wrap;html=1;fillColor=#d5e8d4;strokeColor=#82b366;" vertex="1" parent="1">
          <mxGeometry x="180" y="143" width="80" height="40" as="geometry" />
        </mxCell>
        <mxCell id="OWXHwOEo0ONOkHrs3OB0-2" value="" style="rounded=0;whiteSpace=wrap;html=1;rotation=-90;fillColor=#d5e8d4;strokeColor=#82b366;" vertex="1" parent="1">
          <mxGeometry x="202.5" y="207.5" width="75" height="40" as="geometry" />
        </mxCell>
        <mxCell id="OWXHwOEo0ONOkHrs3OB0-3" value="" style="rounded=0;whiteSpace=wrap;html=1;fillColor=#d5e8d4;strokeColor=#82b366;" vertex="1" parent="1">
          <mxGeometry x="218.5" y="270" width="81.5" height="38" as="geometry" />
        </mxCell>
        <mxCell id="OWXHwOEo0ONOkHrs3OB0-4" value="" style="rounded=0;whiteSpace=wrap;html=1;rotation=90;fillColor=#d5e8d4;strokeColor=#82b366;" vertex="1" parent="1">
          <mxGeometry x="249.38" y="157.62" width="62.25" height="34" as="geometry" />
        </mxCell>
        <mxCell id="OWXHwOEo0ONOkHrs3OB0-5" value="" style="rounded=0;whiteSpace=wrap;html=1;fillColor=#d5e8d4;strokeColor=#82b366;" vertex="1" parent="1">
          <mxGeometry x="135" y="190.62" width="80" height="37" as="geometry" />
        </mxCell>
        <mxCell id="OWXHwOEo0ONOkHrs3OB0-6" value="" style="rounded=0;whiteSpace=wrap;html=1;rotation=-90;fillColor=#d5e8d4;strokeColor=#82b366;" vertex="1" parent="1">
          <mxGeometry x="155" y="252" width="80" height="40" as="geometry" />
        </mxCell>
        <mxCell id="OWXHwOEo0ONOkHrs3OB0-7" value="" style="rounded=0;whiteSpace=wrap;html=1;fillColor=#d5e8d4;strokeColor=#82b366;" vertex="1" parent="1">
          <mxGeometry x="270" y="212" width="88.5" height="40" as="geometry" />
        </mxCell>
      </root>
    </mxGraphModel>
  </diagram>
</mxfile>
